<svg width="33" height="26" viewBox="0 0 33 26" fill="none" xmlns="http://www.w3.org/2000/svg">
<path d="M27.5749 2.74469C25.4992 1.78282 23.2886 1.07407 20.9599 0.669067C20.673 1.17532 20.3355 1.86719 20.1161 2.42407C17.6524 2.05282 15.2055 2.05282 12.7924 2.42407C12.5561 1.86719 12.2186 1.17532 11.9318 0.669067C9.60301 1.07407 7.39239 1.78282 5.31676 2.74469C1.13176 9.05594 0.00113678 15.2154 0.558012 21.2735C3.34239 23.3491 6.02551 24.5979 8.67489 25.4247C9.33301 24.5304 9.90676 23.5685 10.413 22.5729C9.45114 22.2185 8.53989 21.7629 7.67926 21.2397C7.91551 21.071 8.13489 20.8854 8.35426 20.7166C13.6361 23.1804 19.3567 23.1804 24.5711 20.7166C24.7905 20.9022 25.0099 21.071 25.2461 21.2397C24.3855 21.7629 23.4574 22.2016 22.5124 22.5729C23.0186 23.5685 23.5924 24.5304 24.2505 25.4247C26.8999 24.5979 29.5999 23.3491 32.3674 21.2735C33.0255 14.2366 31.2367 8.14469 27.6086 2.74469H27.5749ZM11.1218 17.561C9.53551 17.561 8.23614 16.0929 8.23614 14.2872C8.23614 12.4816 9.50176 11.0135 11.1218 11.0135C12.7418 11.0135 14.0242 12.4816 14.0074 14.2872C14.0074 16.076 12.7418 17.561 11.1218 17.561ZM21.7699 17.561C20.1836 17.561 18.8842 16.0929 18.8842 14.2872C18.8842 12.4816 20.1499 11.0135 21.7699 11.0135C23.3899 11.0135 24.6724 12.4816 24.6555 14.2872C24.6555 16.076 23.3899 17.561 21.7699 17.561Z" fill="#EAEAEA"/>
</svg>
