<svg width="25" height="26" viewBox="0 0 25 26" fill="none" xmlns="http://www.w3.org/2000/svg">
<path fill-rule="evenodd" clip-rule="evenodd" d="M25 3.625H0V11.4375H25V3.625ZM6.25 7.53125C6.25 8.39419 5.55044 9.09375 4.6875 9.09375C3.82456 9.09375 3.125 8.39419 3.125 7.53125C3.125 6.66831 3.82456 5.96875 4.6875 5.96875C5.55044 5.96875 6.25 6.66831 6.25 7.53125Z" fill="#F8F8F8"/>
<path fill-rule="evenodd" clip-rule="evenodd" d="M25 14.5625H0V22.375H25V14.5625ZM4.6875 20.0312C5.55044 20.0312 6.25 19.3317 6.25 18.4688C6.25 17.6058 5.55044 16.9062 4.6875 16.9062C3.82456 16.9062 3.125 17.6058 3.125 18.4688C3.125 19.3317 3.82456 20.0312 4.6875 20.0312Z" fill="#F8F8F8"/>
</svg>
